<?xml version="1.0" encoding="UTF-8" standalone="no"?>
<!-- Created with Inkscape (http://www.inkscape.org/) -->

<svg
   xmlns:dc="http://purl.org/dc/elements/1.1/"
   xmlns:cc="http://creativecommons.org/ns#"
   xmlns:rdf="http://www.w3.org/1999/02/22-rdf-syntax-ns#"
   xmlns:svg="http://www.w3.org/2000/svg"
   xmlns="http://www.w3.org/2000/svg"
   xmlns:sodipodi="http://sodipodi.sourceforge.net/DTD/sodipodi-0.dtd"
   xmlns:inkscape="http://www.inkscape.org/namespaces/inkscape"
   width="30.48mm"
   height="128.5mm"
   viewBox="0 0 30.480002 128.50002"
   version="1.1"
   id="svg8"
   inkscape:version="0.92.2 5c3e80d, 2017-08-06"
   sodipodi:docname="ArduinoTest.svg">
  <defs
     id="defs2" />
  <sodipodi:namedview
     id="base"
     pagecolor="#ffffff"
     bordercolor="#666666"
     borderopacity="1.0"
     inkscape:pageopacity="0.0"
     inkscape:pageshadow="2"
     inkscape:zoom="1.979899"
     inkscape:cx="7.8418702"
     inkscape:cy="352.80111"
     inkscape:document-units="mm"
     inkscape:current-layer="layer1"
     showgrid="false"
     units="mm"
     inkscape:snap-bbox="true"
     inkscape:snap-page="true"
     inkscape:bbox-nodes="false"
     inkscape:snap-bbox-edge-midpoints="false"
     inkscape:window-width="1664"
     inkscape:window-height="956"
     inkscape:window-x="0"
     inkscape:window-y="0"
     inkscape:window-maximized="0"
     inkscape:snap-bbox-midpoints="true"
     inkscape:snap-nodes="false"
     inkscape:snap-text-baseline="false" />
  <metadata
     id="metadata5">
    <rdf:RDF>
      <cc:Work
         rdf:about="">
        <dc:format>image/svg+xml</dc:format>
        <dc:type
           rdf:resource="http://purl.org/dc/dcmitype/StillImage" />
        <dc:title />
      </cc:Work>
    </rdf:RDF>
  </metadata>
  <g
     inkscape:label="Layer 1"
     inkscape:groupmode="layer"
     id="layer1"
     transform="translate(0,-168.49998)"
     style="opacity:1">
    <rect
       style="display:inline;opacity:1;vector-effect:none;fill:#e6e6e6;fill-opacity:1;fill-rule:evenodd;stroke:none;stroke-width:0.64935839;stroke-linecap:butt;stroke-linejoin:miter;stroke-miterlimit:4;stroke-dasharray:none;stroke-dashoffset:0;stroke-opacity:1;paint-order:normal"
       id="background"
       width="30.48"
       height="128.5"
       x="5.9211732e-17"
       y="168.49997"
       inkscape:label="background" />
    <g
       aria-label="Arduino Test"
       style="font-style:normal;font-variant:normal;font-weight:normal;font-stretch:normal;font-size:4.23333311px;line-height:0;font-family:Helvetica;-inkscape-font-specification:Helvetica;text-align:center;letter-spacing:0px;word-spacing:0px;text-anchor:middle;opacity:1;fill:#000000;fill-opacity:1;stroke:none;stroke-width:0.26458332"
       id="text48"
       inkscape:label="Arduino Test">
      <path
         d="M 5.0272597,185.37328 4.566306,184.03176 4.0764134,185.37328 Z M 4.351332,183.58114 h 0.4650879 l 1.1017415,3.03651 H 5.4675429 L 5.1595514,185.70814 H 3.9585912 l -0.3286621,0.90951 H 3.2082494 Z m 0.2129069,0 z"
         style="font-style:normal;font-variant:normal;font-weight:normal;font-stretch:normal;font-size:4.23333311px;line-height:0;font-family:Helvetica;-inkscape-font-specification:Helvetica;text-align:center;text-anchor:middle;fill:#000000;fill-opacity:1;stroke-width:0.26458332"
         id="path4545"
         inkscape:connector-curvature="0" />
      <path
         d="m 6.2571588,184.40383 h 0.3534667 v 0.3824 q 0.043408,-0.11162 0.2129069,-0.27078 0.1694987,-0.16123 0.3906738,-0.16123 0.010335,0 0.03514,0.002 0.024805,0.002 0.084749,0.008 v 0.39274 q -0.033073,-0.006 -0.062012,-0.008 -0.026872,-0.002 -0.059945,-0.002 -0.2811198,0 -0.432015,0.1819 -0.1508952,0.17983 -0.1508952,0.41548 v 1.27331 H 6.2571588 Z"
         style="font-style:normal;font-variant:normal;font-weight:normal;font-stretch:normal;font-size:4.23333311px;line-height:0;font-family:Helvetica;-inkscape-font-specification:Helvetica;text-align:center;text-anchor:middle;fill:#000000;fill-opacity:1;stroke-width:0.26458332"
         id="path4547"
         inkscape:connector-curvature="0" />
      <path
         d="m 7.8963352,185.53657 q 0,0.35554 0.1508952,0.59532 0.1508952,0.23978 0.4836914,0.23978 0.2583821,0 0.4237467,-0.22118 0.1674316,-0.22324 0.1674316,-0.63872 0,-0.41961 -0.1715657,-0.62012 -0.1715658,-0.20257 -0.4237467,-0.20257 -0.2811198,0 -0.4568197,0.21497 -0.1736328,0.21498 -0.1736328,0.63252 z m 0.5601725,-1.17202 q 0.2542481,0 0.4258138,0.10749 0.099219,0.062 0.2253092,0.21704 v -1.11828 h 0.3576009 v 3.04685 H 9.1303684 v -0.308 q -0.1302246,0.20464 -0.3079916,0.29559 -0.1777669,0.0909 -0.4072102,0.0909 -0.3700033,0 -0.6407878,-0.31006 -0.2707844,-0.31212 -0.2707844,-0.82889 0,-0.48369 0.2459798,-0.83715 0.2480468,-0.35554 0.7069335,-0.35554 z"
         style="font-style:normal;font-variant:normal;font-weight:normal;font-stretch:normal;font-size:4.23333311px;line-height:0;font-family:Helvetica;-inkscape-font-specification:Helvetica;text-align:center;text-anchor:middle;fill:#000000;fill-opacity:1;stroke-width:0.26458332"
         id="path4549"
         inkscape:connector-curvature="0" />
      <path
         d="m 10.389206,184.40383 v 1.46967 q 0,0.1695 0.05374,0.27699 0.09922,0.19844 0.370004,0.19844 0.388606,0 0.529166,-0.34727 0.07648,-0.18603 0.07648,-0.51056 v -1.08727 h 0.372071 v 2.21382 h -0.3514 l 0.0041,-0.3266 q -0.07235,0.12609 -0.179834,0.21291 -0.212907,0.17363 -0.516764,0.17363 -0.473356,0 -0.644922,-0.31626 -0.09302,-0.1695 -0.09302,-0.45269 v -1.50481 z m 0.510563,-0.0538 z"
         style="font-style:normal;font-variant:normal;font-weight:normal;font-stretch:normal;font-size:4.23333311px;line-height:0;font-family:Helvetica;-inkscape-font-specification:Helvetica;text-align:center;text-anchor:middle;fill:#000000;fill-opacity:1;stroke-width:0.26458332"
         id="path4551"
         inkscape:connector-curvature="0" />
      <path
         d="m 12.373581,184.41416 h 0.378271 v 2.20349 h -0.378271 z m 0,-0.83302 h 0.378271 v 0.42168 h -0.378271 z"
         style="font-style:normal;font-variant:normal;font-weight:normal;font-stretch:normal;font-size:4.23333311px;line-height:0;font-family:Helvetica;-inkscape-font-specification:Helvetica;text-align:center;text-anchor:middle;fill:#000000;fill-opacity:1;stroke-width:0.26458332"
         id="path4553"
         inkscape:connector-curvature="0" />
      <path
         d="m 13.316159,184.40383 h 0.353467 v 0.31419 q 0.157096,-0.1943 0.332796,-0.27905 0.1757,-0.0848 0.390674,-0.0848 0.471289,0 0.636654,0.32866 0.09095,0.17983 0.09095,0.5147 v 1.42007 h -0.378271 v -1.39527 q 0,-0.20257 -0.05994,-0.32659 -0.09922,-0.20671 -0.359668,-0.20671 -0.132292,0 -0.217041,0.0269 -0.152962,0.0455 -0.268717,0.1819 -0.09302,0.10956 -0.121957,0.22738 -0.02687,0.11576 -0.02687,0.3328 v 1.15962 h -0.37207 z m 0.874365,-0.0538 z"
         style="font-style:normal;font-variant:normal;font-weight:normal;font-stretch:normal;font-size:4.23333311px;line-height:0;font-family:Helvetica;-inkscape-font-specification:Helvetica;text-align:center;text-anchor:middle;fill:#000000;fill-opacity:1;stroke-width:0.26458332"
         id="path4555"
         inkscape:connector-curvature="0" />
      <path
         d="m 16.551103,186.37787 q 0.370003,0 0.506429,-0.27906 0.138493,-0.28112 0.138493,-0.62425 0,-0.31006 -0.09922,-0.50436 -0.157096,-0.30592 -0.541569,-0.30592 -0.341064,0 -0.496094,0.26045 -0.155029,0.26044 -0.155029,0.62838 0,0.35347 0.155029,0.58911 0.15503,0.23565 0.491961,0.23565 z m 0.01447,-2.03812 q 0.427881,0 0.72347,0.28525 0.295589,0.28526 0.295589,0.83923 0,0.53537 -0.260449,0.8847 -0.260449,0.34933 -0.808219,0.34933 -0.45682,0 -0.725537,-0.30799 -0.268718,-0.31006 -0.268718,-0.83096 0,-0.5581 0.283187,-0.88883 0.283187,-0.33073 0.760677,-0.33073 z m -0.0124,0.0103 z"
         style="font-style:normal;font-variant:normal;font-weight:normal;font-stretch:normal;font-size:4.23333311px;line-height:0;font-family:Helvetica;-inkscape-font-specification:Helvetica;text-align:center;text-anchor:middle;fill:#000000;fill-opacity:1;stroke-width:0.26458332"
         id="path4557"
         inkscape:connector-curvature="0" />
      <path
         d="m 21.462431,183.58114 v 0.36173 h -1.023193 v 2.67478 h -0.417546 v -2.67478 h -1.023193 v -0.36173 z"
         style="font-style:normal;font-variant:normal;font-weight:normal;font-stretch:normal;font-size:4.23333311px;line-height:0;font-family:Helvetica;-inkscape-font-specification:Helvetica;text-align:center;text-anchor:middle;fill:#000000;fill-opacity:1;stroke-width:0.26458332"
         id="path4559"
         inkscape:connector-curvature="0" />
      <path
         d="m 22.713,184.35422 q 0.235645,0 0.45682,0.11162 0.221175,0.10955 0.33693,0.28525 0.111621,0.16743 0.148828,0.39068 0.03307,0.15296 0.03307,0.48782 h -1.62264 q 0.01034,0.33693 0.159164,0.54157 0.148828,0.20257 0.460954,0.20257 0.291455,0 0.465087,-0.19223 0.09922,-0.11162 0.14056,-0.25839 h 0.365869 q -0.01447,0.12196 -0.09715,0.27286 -0.08061,0.14882 -0.181901,0.24391 -0.169499,0.16536 -0.419613,0.22324 -0.134359,0.0331 -0.303857,0.0331 -0.413412,0 -0.700733,-0.29972 -0.287321,-0.30179 -0.287321,-0.84336 0,-0.5333 0.289388,-0.8661 0.289388,-0.33279 0.756543,-0.33279 z m 0.593246,0.97978 q -0.02274,-0.24184 -0.10542,-0.38654 -0.152962,-0.26871 -0.510563,-0.26871 -0.256315,0 -0.429948,0.18603 -0.173633,0.18397 -0.183968,0.46922 z m -0.628386,-0.98392 z"
         style="font-style:normal;font-variant:normal;font-weight:normal;font-stretch:normal;font-size:4.23333311px;line-height:0;font-family:Helvetica;-inkscape-font-specification:Helvetica;text-align:center;text-anchor:middle;fill:#000000;fill-opacity:1;stroke-width:0.26458332"
         id="path4561"
         inkscape:connector-curvature="0" />
      <path
         d="m 24.368713,185.92311 q 0.01654,0.18604 0.09302,0.28526 0.14056,0.17983 0.487825,0.17983 0.206706,0 0.363802,-0.0889 0.157097,-0.0909 0.157097,-0.27905 0,-0.14263 -0.126091,-0.21705 -0.08061,-0.0455 -0.318327,-0.10542 l -0.295589,-0.0744 q -0.283187,-0.0703 -0.417545,-0.1571 -0.239779,-0.15089 -0.239779,-0.41754 0,-0.31419 0.225309,-0.5085 0.227377,-0.1943 0.609782,-0.1943 0.500228,0 0.721403,0.29352 0.138493,0.18604 0.134359,0.40101 h -0.3514 q -0.01033,-0.12609 -0.08888,-0.22944 -0.128158,-0.14676 -0.444418,-0.14676 -0.210839,0 -0.320394,0.0806 -0.107486,0.0806 -0.107486,0.21291 0,0.14469 0.142626,0.23151 0.08268,0.0517 0.243913,0.0909 l 0.24598,0.0599 q 0.401009,0.0972 0.537435,0.18811 0.217041,0.14262 0.217041,0.44855 0,0.29559 -0.225309,0.51056 -0.223243,0.21497 -0.682129,0.21497 -0.494027,0 -0.700733,-0.22324 -0.204638,-0.22531 -0.219108,-0.55604 z m 0.549837,-1.57303 z"
         style="font-style:normal;font-variant:normal;font-weight:normal;font-stretch:normal;font-size:4.23333311px;line-height:0;font-family:Helvetica;-inkscape-font-specification:Helvetica;text-align:center;text-anchor:middle;fill:#000000;fill-opacity:1;stroke-width:0.26458332"
         id="path4563"
         inkscape:connector-curvature="0" />
      <path
         d="m 26.338619,183.78578 h 0.376204 v 0.61805 h 0.353467 v 0.30385 h -0.353467 v 1.44488 q 0,0.11575 0.07855,0.15503 0.04341,0.0227 0.144694,0.0227 0.02687,0 0.05788,0 0.03101,-0.002 0.07235,-0.006 v 0.29353 q -0.06408,0.0186 -0.134359,0.0269 -0.06821,0.008 -0.148828,0.008 -0.260449,0 -0.353466,-0.1323 -0.09302,-0.13436 -0.09302,-0.34726 v -1.46555 h -0.299723 v -0.30385 h 0.299723 z"
         style="font-style:normal;font-variant:normal;font-weight:normal;font-stretch:normal;font-size:4.23333311px;line-height:0;font-family:Helvetica;-inkscape-font-specification:Helvetica;text-align:center;text-anchor:middle;fill:#000000;fill-opacity:1;stroke-width:0.26458332"
         id="path4565"
         inkscape:connector-curvature="0" />
    </g>
  </g>
  <g
     inkscape:groupmode="layer"
     id="layer2"
     inkscape:label="components"
     style="display:inline" />
</svg>
