<?xml version="1.0" encoding="UTF-8" standalone="no"?>
<!-- Created with Inkscape (http://www.inkscape.org/) -->

<svg
   xmlns:dc="http://purl.org/dc/elements/1.1/"
   xmlns:cc="http://creativecommons.org/ns#"
   xmlns:rdf="http://www.w3.org/1999/02/22-rdf-syntax-ns#"
   xmlns:svg="http://www.w3.org/2000/svg"
   xmlns="http://www.w3.org/2000/svg"
   xmlns:sodipodi="http://sodipodi.sourceforge.net/DTD/sodipodi-0.dtd"
   xmlns:inkscape="http://www.inkscape.org/namespaces/inkscape"
   width="40.639725mm"
   height="128.50069mm"
   viewBox="0 0 40.639725 128.50069"
   version="1.1"
   id="svg22336"
   inkscape:version="0.92.2 5c3e80d, 2017-08-06"
   sodipodi:docname="Prototype1Test.svg">
  <defs
     id="defs22330">
    <clipPath
       id="clip14">
      <rect
         x="0"
         y="0"
         width="97"
         height="27"
         id="rect1591" />
    </clipPath>
    <clipPath
       id="clip15">
      <path
         inkscape:connector-curvature="0"
         d="m 0.476562,26 h 95.925782 v 0.960938 H 0.476562 Z m 0,0"
         id="path1585" />
    </clipPath>
    <clipPath
       id="clip16">
      <path
         inkscape:connector-curvature="0"
         d="M 0.476562,0.00390625 H 96.402344 V 1 H 0.476562 Z m 0,0"
         id="path1588" />
    </clipPath>
    <clipPath
       id="clip300">
      <rect
         x="0"
         y="0"
         width="23"
         height="26"
         id="rect3738" />
    </clipPath>
    <clipPath
       id="clip301">
      <path
         inkscape:connector-curvature="0"
         d="M 0.167969,0.878906 H 22.84375 V 25.621094 H 0.167969 Z m 0,0"
         id="path3735" />
    </clipPath>
    <clipPath
       id="clip302">
      <rect
         x="0"
         y="0"
         width="17"
         height="16"
         id="rect3754" />
    </clipPath>
    <clipPath
       id="clip303">
      <path
         inkscape:connector-curvature="0"
         d="M 0.382812,0.117188 H 16.628906 V 15.214844 H 0.382812 Z m 0,0"
         id="path3751" />
    </clipPath>
    <clipPath
       id="clip304">
      <rect
         x="0"
         y="0"
         width="23"
         height="26"
         id="rect3770" />
    </clipPath>
    <clipPath
       id="clip305">
      <path
         inkscape:connector-curvature="0"
         d="M 0.0507812,0.878906 H 22.726562 V 25.621094 H 0.0507812 Z m 0,0"
         id="path3767" />
    </clipPath>
    <clipPath
       id="clip306">
      <rect
         x="0"
         y="0"
         width="17"
         height="16"
         id="rect3786" />
    </clipPath>
    <clipPath
       id="clip307">
      <path
         inkscape:connector-curvature="0"
         d="M 0.265625,0.117188 H 16.511719 V 15.214844 H 0.265625 Z m 0,0"
         id="path3783" />
    </clipPath>
    <clipPath
       id="clip308">
      <rect
         x="0"
         y="0"
         width="24"
         height="26"
         id="rect3802" />
    </clipPath>
    <clipPath
       id="clip309">
      <path
         inkscape:connector-curvature="0"
         d="M 0.929688,0.878906 H 23.609375 V 25.621094 H 0.929688 Z m 0,0"
         id="path3799" />
    </clipPath>
    <clipPath
       id="clip310">
      <rect
         x="0"
         y="0"
         width="17"
         height="16"
         id="rect3818" />
    </clipPath>
    <clipPath
       id="clip311">
      <path
         inkscape:connector-curvature="0"
         d="m 0.144531,0.117188 h 16.25 v 15.097656 h -16.25 z m 0,0"
         id="path3815" />
    </clipPath>
    <clipPath
       id="clip313">
      <rect
         x="0"
         y="0"
         width="23"
         height="26"
         id="rect3837" />
    </clipPath>
    <clipPath
       id="clip314">
      <path
         inkscape:connector-curvature="0"
         d="M 0.167969,0.527344 H 22.84375 V 25.265625 H 0.167969 Z m 0,0"
         id="path3834" />
    </clipPath>
    <clipPath
       id="clip315">
      <rect
         x="0"
         y="0"
         width="17"
         height="16"
         id="rect3853" />
    </clipPath>
    <clipPath
       id="clip316">
      <path
         inkscape:connector-curvature="0"
         d="M 0.382812,0.761719 H 16.628906 V 15.859375 H 0.382812 Z m 0,0"
         id="path3850" />
    </clipPath>
    <clipPath
       id="clip318">
      <rect
         x="0"
         y="0"
         width="24"
         height="26"
         id="rect3872" />
    </clipPath>
    <clipPath
       id="clip319">
      <path
         inkscape:connector-curvature="0"
         d="M 0.929688,0.527344 H 23.609375 V 25.265625 H 0.929688 Z m 0,0"
         id="path3869" />
    </clipPath>
    <clipPath
       id="clip320">
      <rect
         x="0"
         y="0"
         width="17"
         height="16"
         id="rect3888" />
    </clipPath>
    <clipPath
       id="clip321">
      <path
         inkscape:connector-curvature="0"
         d="m 0.144531,0.761719 h 16.25 v 15.097656 h -16.25 z m 0,0"
         id="path3885" />
    </clipPath>
    <clipPath
       id="clip323">
      <rect
         x="0"
         y="0"
         width="23"
         height="26"
         id="rect3907" />
    </clipPath>
    <clipPath
       id="clip324">
      <path
         inkscape:connector-curvature="0"
         d="M 0.0507812,0.527344 H 22.726562 V 25.265625 H 0.0507812 Z m 0,0"
         id="path3904" />
    </clipPath>
    <clipPath
       id="clip325">
      <rect
         x="0"
         y="0"
         width="17"
         height="16"
         id="rect3923" />
    </clipPath>
    <clipPath
       id="clip326">
      <path
         inkscape:connector-curvature="0"
         d="M 0.265625,0.761719 H 16.511719 V 15.859375 H 0.265625 Z m 0,0"
         id="path3920" />
    </clipPath>
    <clipPath
       id="clip463">
      <rect
         x="0"
         y="0"
         width="23"
         height="25"
         id="rect4987" />
    </clipPath>
    <clipPath
       id="clip464">
      <path
         inkscape:connector-curvature="0"
         d="M 0.167969,0.234375 H 22.84375 V 24.976562 H 0.167969 Z m 0,0"
         id="path4984" />
    </clipPath>
    <clipPath
       id="clip465">
      <rect
         x="0"
         y="0"
         width="17"
         height="16"
         id="rect5003" />
    </clipPath>
    <clipPath
       id="clip466">
      <path
         inkscape:connector-curvature="0"
         d="M 0.382812,0.46875 H 16.628906 V 15.570312 H 0.382812 Z m 0,0"
         id="path5000" />
    </clipPath>
    <clipPath
       id="clip467">
      <rect
         x="0"
         y="0"
         width="23"
         height="25"
         id="rect5019" />
    </clipPath>
    <clipPath
       id="clip468">
      <path
         inkscape:connector-curvature="0"
         d="M 0.0507812,0.234375 H 22.726562 V 24.976562 H 0.0507812 Z m 0,0"
         id="path5016" />
    </clipPath>
    <clipPath
       id="clip469">
      <rect
         x="0"
         y="0"
         width="17"
         height="16"
         id="rect5035" />
    </clipPath>
    <clipPath
       id="clip470">
      <path
         inkscape:connector-curvature="0"
         d="M 0.265625,0.46875 H 16.511719 V 15.570312 H 0.265625 Z m 0,0"
         id="path5032" />
    </clipPath>
    <clipPath
       id="clip471">
      <rect
         x="0"
         y="0"
         width="24"
         height="25"
         id="rect5051" />
    </clipPath>
    <clipPath
       id="clip472">
      <path
         inkscape:connector-curvature="0"
         d="M 0.929688,0.234375 H 23.609375 V 24.976562 H 0.929688 Z m 0,0"
         id="path5048" />
    </clipPath>
    <clipPath
       id="clip473">
      <rect
         x="0"
         y="0"
         width="17"
         height="16"
         id="rect5067" />
    </clipPath>
    <clipPath
       id="clip474">
      <path
         inkscape:connector-curvature="0"
         d="m 0.144531,0.46875 h 16.25 v 15.101562 h -16.25 z m 0,0"
         id="path5064" />
    </clipPath>
    <clipPath
       id="clip476">
      <rect
         x="0"
         y="0"
         width="23"
         height="26"
         id="rect5086" />
    </clipPath>
    <clipPath
       id="clip477">
      <path
         inkscape:connector-curvature="0"
         d="M 0.167969,0.589844 H 22.84375 V 25.328125 H 0.167969 Z m 0,0"
         id="path5083" />
    </clipPath>
    <clipPath
       id="clip478">
      <rect
         x="0"
         y="0"
         width="17"
         height="16"
         id="rect5102" />
    </clipPath>
    <clipPath
       id="clip479">
      <path
         inkscape:connector-curvature="0"
         d="M 0.382812,0.824219 H 16.628906 V 15.921875 H 0.382812 Z m 0,0"
         id="path5099" />
    </clipPath>
    <clipPath
       id="clip481">
      <rect
         x="0"
         y="0"
         width="23"
         height="26"
         id="rect5121" />
    </clipPath>
    <clipPath
       id="clip482">
      <path
         inkscape:connector-curvature="0"
         d="M 0.0507812,0.589844 H 22.726562 V 25.328125 H 0.0507812 Z m 0,0"
         id="path5118" />
    </clipPath>
    <clipPath
       id="clip483">
      <rect
         x="0"
         y="0"
         width="17"
         height="16"
         id="rect5137" />
    </clipPath>
    <clipPath
       id="clip484">
      <path
         inkscape:connector-curvature="0"
         d="M 0.265625,0.824219 H 16.511719 V 15.921875 H 0.265625 Z m 0,0"
         id="path5134" />
    </clipPath>
    <clipPath
       id="clip486">
      <rect
         x="0"
         y="0"
         width="24"
         height="26"
         id="rect5156" />
    </clipPath>
    <clipPath
       id="clip487">
      <path
         inkscape:connector-curvature="0"
         d="M 0.929688,0.589844 H 23.609375 V 25.328125 H 0.929688 Z m 0,0"
         id="path5153" />
    </clipPath>
    <clipPath
       id="clip488">
      <rect
         x="0"
         y="0"
         width="17"
         height="16"
         id="rect5172" />
    </clipPath>
    <clipPath
       id="clip489">
      <path
         inkscape:connector-curvature="0"
         d="m 0.144531,0.824219 h 16.25 v 15.097656 h -16.25 z m 0,0"
         id="path5169" />
    </clipPath>
  </defs>
  <sodipodi:namedview
     id="base"
     pagecolor="#ffffff"
     bordercolor="#666666"
     borderopacity="1.0"
     inkscape:pageopacity="0.0"
     inkscape:pageshadow="2"
     inkscape:zoom="2.8"
     inkscape:cx="111.19492"
     inkscape:cy="398.19257"
     inkscape:document-units="mm"
     inkscape:current-layer="layer1"
     showgrid="false"
     fit-margin-top="0"
     fit-margin-left="0"
     fit-margin-right="0"
     fit-margin-bottom="0"
     inkscape:window-width="1627"
     inkscape:window-height="968"
     inkscape:window-x="0"
     inkscape:window-y="0"
     inkscape:window-maximized="0" />
  <metadata
     id="metadata22333">
    <rdf:RDF>
      <cc:Work
         rdf:about="">
        <dc:format>image/svg+xml</dc:format>
        <dc:type
           rdf:resource="http://purl.org/dc/dcmitype/StillImage" />
        <dc:title />
      </cc:Work>
    </rdf:RDF>
  </metadata>
  <g
     inkscape:label="Layer 1"
     inkscape:groupmode="layer"
     id="layer1"
     transform="translate(-77.197996,-46.785373)"
     style="display:inline">
    <path
       inkscape:connector-curvature="0"
       style="display:inline;fill:#e6e6e6;fill-opacity:1;fill-rule:nonzero;stroke:none;stroke-width:0.35277775"
       d="M 77.291704,46.879082 H 117.74401 V 175.19235 H 77.291704 Z m 0,0"
       id="path11739" />
    <path
       inkscape:connector-curvature="0"
       style="display:inline;fill:#ababab;fill-opacity:1;fill-rule:nonzero;stroke:none;stroke-width:0.35277775"
       d="M 117.83772,46.785373 H 77.197996 V 175.28606 H 117.83772 Z M 117.65031,175.09865 H 77.384033 V 46.972787 h 40.266277 z m 0,0"
       id="path11741" />
    <g
       aria-label="Arduino Leonardo"
       style="font-style:normal;font-variant:normal;font-weight:normal;font-stretch:normal;font-size:4.93888903px;line-height:1.25;font-family:'.Helvetica LT MM';-inkscape-font-specification:'.Helvetica LT MM';letter-spacing:0px;word-spacing:0px;fill:#000000;fill-opacity:1;stroke:none;stroke-width:0.07000434"
       id="text3814"
       transform="matrix(0.8453927,0,0,0.8453927,13.56148,8.6961504)">
      <path
         d="m 85.683867,62.063301 h 0.371475 c 0.05715,-0.20955 0.117475,-0.4191 0.174625,-0.62865 h 0.847725 c 0.06668,0.20955 0.127,0.4191 0.193675,0.62865 h 0.365125 c -0.257175,-0.79375 -0.517525,-1.5875 -0.7747,-2.38125 h -0.3937 c -0.26035,0.79375 -0.523875,1.5875 -0.784225,2.38125 z m 1.31445,-0.898525 h -0.682625 c 0.1143,-0.41275 0.2286,-0.8255 0.3429,-1.23825 v 0 c 0.1143,0.41275 0.2286,0.8255 0.339725,1.23825 z"
         style="font-style:normal;font-variant:normal;font-weight:normal;font-stretch:normal;font-size:3.17499995px;font-family:'.Helvetica LT MM';-inkscape-font-specification:'.Helvetica LT MM';letter-spacing:-0.10583333px;stroke-width:0.07000434"
         id="path3868"
         inkscape:connector-curvature="0" />
      <path
         d="m 88.139217,60.326576 h -0.295275 v 1.736725 h 0.314325 v -0.5969 c 0,-0.136525 0.0064,-0.263525 0.02223,-0.381 0,-0.149225 0.04445,-0.269875 0.12065,-0.352425 0.04762,-0.05398 0.117475,-0.1016 0.206375,-0.127 v -0.09842 c 0.05397,-0.01588 0.1143,-0.01588 0.187325,0 v -0.07937 c 0,-0.02858 0,-0.0635 0.0381,-0.12065 -0.0889,-0.0095 -0.1651,-0.0032 -0.2286,0.0127 -0.168275,0.0381 -0.2794,0.14605 -0.358775,0.33655 h -0.0063 z"
         style="font-style:normal;font-variant:normal;font-weight:normal;font-stretch:normal;font-size:3.17499995px;font-family:'.Helvetica LT MM';-inkscape-font-specification:'.Helvetica LT MM';letter-spacing:-0.10583333px;stroke-width:0.07000434"
         id="path3870"
         inkscape:connector-curvature="0" />
      <path
         d="m 89.834353,60.517076 h -0.0063 c -0.13335,-0.168275 -0.257175,-0.2413 -0.4572,-0.2413 -0.254,0 -0.434975,0.168275 -0.53975,0.428625 -0.0635,0.136525 -0.08572,0.31115 -0.07937,0.4953 0.0032,0.04763 -0.0095,0.32385 0.09843,0.517525 0.07303,0.219075 0.225425,0.396875 0.517525,0.396875 0.23495,0 0.352425,-0.06985 0.4826,-0.301625 h 0.0032 v 0.250825 h 0.295275 v -2.38125 h -0.314325 z m 0,0.8001 c -0.0063,0.206375 -0.0889,0.5461 -0.37465,0.5461 -0.1905,0 -0.2921,-0.09842 -0.339725,-0.2413 -0.04762,-0.1143 -0.04762,-0.276225 -0.04762,-0.43815 0,-0.244475 0.03492,-0.396875 0.09525,-0.479425 0.06668,-0.1143 0.161925,-0.17145 0.288925,-0.17145 0.1905,0 0.282575,0.127 0.333375,0.276225 0.04763,0.1143 0.04763,0.269875 0.04763,0.3683 0,0.04445 -0.0032,0.09208 -0.0032,0.1397 z"
         style="font-style:normal;font-variant:normal;font-weight:normal;font-stretch:normal;font-size:3.17499995px;font-family:'.Helvetica LT MM';-inkscape-font-specification:'.Helvetica LT MM';letter-spacing:-0.10583333px;stroke-width:0.07000434"
         id="path3872"
         inkscape:connector-curvature="0" />
      <path
         d="m 91.574187,62.063301 h 0.307975 v -1.736725 h -0.3175 v 1.101725 c 0,0.06985 -0.0127,0.15875 -0.06985,0.2159 -0.06985,0.1397 -0.1905,0.212725 -0.333375,0.212725 -0.19685,0 -0.26035,-0.08255 -0.26035,-0.2667 v -1.26365 h -0.314325 v 0.9144 c 0,0.142875 0,0.2794 0.0064,0.415925 0.01905,0.32385 0.2159,0.4572 0.4826,0.4572 0.20955,0 0.384175,-0.09842 0.4953,-0.307975 h 0.0032 z"
         style="font-style:normal;font-variant:normal;font-weight:normal;font-stretch:normal;font-size:3.17499995px;font-family:'.Helvetica LT MM';-inkscape-font-specification:'.Helvetica LT MM';letter-spacing:-0.10583333px;stroke-width:0.07000434"
         id="path3874"
         inkscape:connector-curvature="0" />
      <path
         d="m 92.596471,62.063301 v -1.736725 h -0.3175 v 1.736725 z m 0,-2.05105 v -0.3429 h -0.3175 v 0.3429 z"
         style="font-style:normal;font-variant:normal;font-weight:normal;font-stretch:normal;font-size:3.17499995px;font-family:'.Helvetica LT MM';-inkscape-font-specification:'.Helvetica LT MM';letter-spacing:-0.10583333px;stroke-width:0.07000434"
         id="path3876"
         inkscape:connector-curvature="0" />
      <path
         d="m 93.283941,60.326576 h -0.29845 v 1.736725 h 0.314325 v -1.158875 c 0,-0.09525 0.0127,-0.1651 0.1143,-0.22225 0.06667,-0.09525 0.1651,-0.14605 0.282575,-0.14605 0.225425,0 0.2921,0.1397 0.2921,0.346075 v 1.1811 h 0.3175 v -0.90805 c 0,-0.155575 -0.0063,-0.29845 -0.01905,-0.441325 -0.02222,-0.307975 -0.22225,-0.43815 -0.492125,-0.43815 -0.22225,0 -0.365125,0.09842 -0.504825,0.27305 h -0.0063 z"
         style="font-style:normal;font-variant:normal;font-weight:normal;font-stretch:normal;font-size:3.17499995px;font-family:'.Helvetica LT MM';-inkscape-font-specification:'.Helvetica LT MM';letter-spacing:-0.10583333px;stroke-width:0.07000434"
         id="path3878"
         inkscape:connector-curvature="0" />
      <path
         d="m 96.084224,61.129851 c 0,-0.250825 -0.0508,-0.454025 -0.1651,-0.587375 -0.130175,-0.168275 -0.320675,-0.2667 -0.5715,-0.2667 -0.2794,0 -0.479425,0.127 -0.5842,0.346075 -0.104775,0.13335 -0.149225,0.327025 -0.149225,0.5715 0.0032,0.34925 0.06668,0.56515 0.18415,0.682625 0.1397,0.17145 0.3302,0.238125 0.549275,0.238125 0.22225,0 0.41275,-0.0635 0.55245,-0.2413 0.117475,-0.13335 0.18415,-0.3683 0.18415,-0.74295 z m -0.32385,0.104775 c 0,0.193675 -0.0254,0.339725 -0.0889,0.4318 -0.06668,0.12065 -0.168275,0.19685 -0.32385,0.19685 -0.1524,0 -0.250825,-0.0762 -0.3175,-0.19685 -0.06668,-0.10795 -0.09207,-0.269875 -0.09207,-0.479425 0,-0.238125 0.03175,-0.396875 0.1016,-0.4826 0.06668,-0.117475 0.168275,-0.174625 0.31115,-0.174625 0.13335,-0.0032 0.238125,0.05398 0.307975,0.168275 0.06985,0.1016 0.1016,0.276225 0.1016,0.536575 z"
         style="font-style:normal;font-variant:normal;font-weight:normal;font-stretch:normal;font-size:3.17499995px;font-family:'.Helvetica LT MM';-inkscape-font-specification:'.Helvetica LT MM';letter-spacing:-0.10583333px;stroke-width:0.07000434"
         id="path3880"
         inkscape:connector-curvature="0" />
      <path
         d="m 98.649293,62.063301 v -0.2794 h -1.082675 v -2.10185 h -0.339725 v 2.38125 z"
         style="font-style:normal;font-variant:normal;font-weight:normal;font-stretch:normal;font-size:3.17499995px;font-family:'.Helvetica LT MM';-inkscape-font-specification:'.Helvetica LT MM';letter-spacing:-0.10583333px;stroke-width:0.07000434"
         id="path3882"
         inkscape:connector-curvature="0" />
      <path
         d="m 99.801604,61.514026 c 0.0063,0.1905 -0.07937,0.3937 -0.33655,0.371475 0,-0.0127 0.0064,-0.01588 0.0127,-0.01588 -0.257175,0 -0.3429,-0.225425 -0.358775,-0.454025 0.01588,-0.0635 0.0381,-0.13335 0.05715,-0.1778 h 0.942971 c -0.006,-0.168275 -0.0159,-0.34925 -0.0667,-0.50165 -0.0762,-0.257175 -0.228601,-0.460375 -0.596901,-0.460375 -0.295275,0 -0.466725,0.2032 -0.5715,0.447675 -0.06985,0.15875 -0.09842,0.3429 -0.09842,0.498475 0,0.2794 0.05397,0.466725 0.1397,0.59055 0.13335,0.22225 0.320675,0.301625 0.536575,0.301625 0.288925,0 0.485775,-0.1524 0.581016,-0.384175 0.0318,-0.0635 0.0508,-0.136525 0.054,-0.2159 z m -0.6604,-0.504825 c -0.0063,-0.03492 -0.01588,-0.08255 -0.01905,-0.127 0.0064,-0.06032 0.02223,-0.117475 0.04445,-0.1651 0.04762,-0.10795 0.136525,-0.19685 0.29845,-0.19685 0.1524,0 0.23495,0.09208 0.282575,0.200025 0.0381,0.0889 0.0381,0.206375 0.04445,0.288925 z"
         style="font-style:normal;font-variant:normal;font-weight:normal;font-stretch:normal;font-size:3.17499995px;font-family:'.Helvetica LT MM';-inkscape-font-specification:'.Helvetica LT MM';letter-spacing:-0.10583333px;stroke-width:0.07000434"
         id="path3884"
         inkscape:connector-curvature="0" />
      <path
         d="m 101.81865,61.129851 c 0,-0.250825 -0.0508,-0.454025 -0.1651,-0.587375 -0.13017,-0.168275 -0.32067,-0.2667 -0.5715,-0.2667 -0.2794,0 -0.47942,0.127 -0.5842,0.346075 -0.10477,0.13335 -0.14922,0.327025 -0.14922,0.5715 0.003,0.34925 0.0667,0.56515 0.18415,0.682625 0.1397,0.17145 0.3302,0.238125 0.54927,0.238125 0.22225,0 0.41275,-0.0635 0.55245,-0.2413 0.11748,-0.13335 0.18415,-0.3683 0.18415,-0.74295 z m -0.32385,0.104775 c 0,0.193675 -0.0254,0.339725 -0.0889,0.4318 -0.0667,0.12065 -0.16827,0.19685 -0.32385,0.19685 -0.1524,0 -0.25082,-0.0762 -0.3175,-0.19685 -0.0667,-0.10795 -0.0921,-0.269875 -0.0921,-0.479425 0,-0.238125 0.0318,-0.396875 0.1016,-0.4826 0.0667,-0.117475 0.16827,-0.174625 0.31115,-0.174625 0.13335,-0.0032 0.23812,0.05398 0.30797,0.168275 0.0699,0.1016 0.1016,0.276225 0.1016,0.536575 z"
         style="font-style:normal;font-variant:normal;font-weight:normal;font-stretch:normal;font-size:3.17499995px;font-family:'.Helvetica LT MM';-inkscape-font-specification:'.Helvetica LT MM';letter-spacing:-0.10583333px;stroke-width:0.07000434"
         id="path3886"
         inkscape:connector-curvature="0" />
      <path
         d="m 102.42819,60.326576 h -0.29845 v 1.736725 h 0.31432 v -1.158875 c 0,-0.09525 0.0127,-0.1651 0.1143,-0.22225 0.0667,-0.09525 0.1651,-0.14605 0.28258,-0.14605 0.22542,0 0.2921,0.1397 0.2921,0.346075 v 1.1811 h 0.3175 v -0.90805 c 0,-0.155575 -0.006,-0.29845 -0.0191,-0.441325 -0.0222,-0.307975 -0.22225,-0.43815 -0.49213,-0.43815 -0.22225,0 -0.36512,0.09842 -0.50482,0.27305 h -0.006 z"
         style="font-style:normal;font-variant:normal;font-weight:normal;font-stretch:normal;font-size:3.17499995px;font-family:'.Helvetica LT MM';-inkscape-font-specification:'.Helvetica LT MM';letter-spacing:-0.10583333px;stroke-width:0.07000434"
         id="path3888"
         inkscape:connector-curvature="0" />
      <path
         d="m 105.111,61.920426 c -0.15875,0.0127 -0.1524,-0.0635 -0.1524,-0.142875 v -0.60325 c 0,-0.1651 0,-0.3175 -0.0127,-0.47625 -0.019,-0.12065 -0.0698,-0.422275 -0.5461,-0.422275 -0.35243,0 -0.55245,0.1143 -0.60643,0.3683 -0.0127,0.04127 -0.019,0.08255 -0.0159,0.136525 h 0.24765 c 0.0476,-0.1905 0.0794,-0.26035 0.32385,-0.26035 0.20002,0 0.3048,0.06032 0.3048,0.2667 0,0.24765 -0.0921,0.149225 -0.66993,0.396875 -0.14922,0.05715 -0.23177,0.15875 -0.26352,0.27305 -0.0286,0.06667 -0.0318,0.130175 -0.0318,0.142875 0,0.33655 0.15875,0.51435 0.52387,0.51435 0.1905,0 0.37783,-0.130175 0.46038,-0.29845 h 0.006 c 0.0127,0.123825 0.0413,0.1905 0.0889,0.2286 0.0699,0.03492 0.15557,0.0381 0.2794,0.03175 0.0254,-0.0063 0.054,-0.0095 0.0825,-0.0127 0,-0.04763 -0.019,-0.09208 -0.019,-0.142875 z m -0.4826,-0.4064 c -0.01,0.2921 -0.2286,0.3683 -0.33973,0.3683 -0.15875,0 -0.23812,-0.05715 -0.26035,-0.168275 -0.006,-0.03175 -0.01,-0.06985 -0.01,-0.111125 0.003,-0.10795 0.0508,-0.2159 0.17145,-0.263525 0.14605,-0.06032 0.30797,-0.111125 0.4445,-0.1905 0,0.123825 0,0.244475 -0.006,0.365125 z"
         style="font-style:normal;font-variant:normal;font-weight:normal;font-stretch:normal;font-size:3.17499995px;font-family:'.Helvetica LT MM';-inkscape-font-specification:'.Helvetica LT MM';letter-spacing:-0.10583333px;stroke-width:0.07000434"
         id="path3890"
         inkscape:connector-curvature="0" />
      <path
         d="m 105.68977,60.326576 h -0.29527 v 1.736725 h 0.31432 v -0.5969 c 0,-0.136525 0.006,-0.263525 0.0222,-0.381 0,-0.149225 0.0444,-0.269875 0.12065,-0.352425 0.0476,-0.05398 0.11747,-0.1016 0.20637,-0.127 v -0.09842 c 0.054,-0.01588 0.1143,-0.01588 0.18733,0 v -0.07937 c 0,-0.02858 0,-0.0635 0.0381,-0.12065 -0.0889,-0.0095 -0.1651,-0.0032 -0.2286,0.0127 -0.16828,0.0381 -0.2794,0.14605 -0.35878,0.33655 h -0.006 z"
         style="font-style:normal;font-variant:normal;font-weight:normal;font-stretch:normal;font-size:3.17499995px;font-family:'.Helvetica LT MM';-inkscape-font-specification:'.Helvetica LT MM';letter-spacing:-0.10583333px;stroke-width:0.07000434"
         id="path3892"
         inkscape:connector-curvature="0" />
      <path
         d="m 107.38491,60.517076 h -0.006 c -0.13335,-0.168275 -0.25718,-0.2413 -0.4572,-0.2413 -0.254,0 -0.43497,0.168275 -0.53975,0.428625 -0.0635,0.136525 -0.0857,0.31115 -0.0794,0.4953 0.003,0.04763 -0.01,0.32385 0.0984,0.517525 0.073,0.219075 0.22543,0.396875 0.51753,0.396875 0.23494,0 0.35242,-0.06985 0.48259,-0.301625 h 0.003 v 0.250825 h 0.29527 v -2.38125 h -0.31432 z m 0,0.8001 c -0.006,0.206375 -0.0889,0.5461 -0.37465,0.5461 -0.1905,0 -0.2921,-0.09842 -0.33972,-0.2413 -0.0476,-0.1143 -0.0476,-0.276225 -0.0476,-0.43815 0,-0.244475 0.0349,-0.396875 0.0952,-0.479425 0.0667,-0.1143 0.16193,-0.17145 0.28893,-0.17145 0.19049,0 0.28257,0.127 0.33337,0.276225 0.0476,0.1143 0.0476,0.269875 0.0476,0.3683 0,0.04445 -0.003,0.09208 -0.003,0.1397 z"
         style="font-style:normal;font-variant:normal;font-weight:normal;font-stretch:normal;font-size:3.17499995px;font-family:'.Helvetica LT MM';-inkscape-font-specification:'.Helvetica LT MM';letter-spacing:-0.10583333px;stroke-width:0.07000434"
         id="path3894"
         inkscape:connector-curvature="0" />
      <path
         d="m 109.51844,61.129851 c 0,-0.250825 -0.0508,-0.454025 -0.1651,-0.587375 -0.13017,-0.168275 -0.32067,-0.2667 -0.5715,-0.2667 -0.2794,0 -0.47942,0.127 -0.5842,0.346075 -0.10477,0.13335 -0.14922,0.327025 -0.14922,0.5715 0.003,0.34925 0.0667,0.56515 0.18415,0.682625 0.1397,0.17145 0.3302,0.238125 0.54927,0.238125 0.22225,0 0.41275,-0.0635 0.55245,-0.2413 0.11748,-0.13335 0.18415,-0.3683 0.18415,-0.74295 z m -0.32385,0.104775 c 0,0.193675 -0.0254,0.339725 -0.0889,0.4318 -0.0667,0.12065 -0.16827,0.19685 -0.32385,0.19685 -0.1524,0 -0.25082,-0.0762 -0.3175,-0.19685 -0.0667,-0.10795 -0.0921,-0.269875 -0.0921,-0.479425 0,-0.238125 0.0318,-0.396875 0.1016,-0.4826 0.0667,-0.117475 0.16827,-0.174625 0.31115,-0.174625 0.13335,-0.0032 0.23812,0.05398 0.30797,0.168275 0.0699,0.1016 0.1016,0.276225 0.1016,0.536575 z"
         style="font-style:normal;font-variant:normal;font-weight:normal;font-stretch:normal;font-size:3.17499995px;font-family:'.Helvetica LT MM';-inkscape-font-specification:'.Helvetica LT MM';letter-spacing:-0.10583333px;stroke-width:0.07000434"
         id="path3896"
         inkscape:connector-curvature="0" />
    </g>
    <g
       aria-label="Prototype 1"
       style="font-style:normal;font-variant:normal;font-weight:normal;font-stretch:normal;font-size:4.93888903px;line-height:1.25;font-family:'.Helvetica LT MM';-inkscape-font-specification:'.Helvetica LT MM';letter-spacing:0px;word-spacing:0px;fill:#000000;fill-opacity:1;stroke:none;stroke-width:0.07000434"
       id="text3845"
       transform="translate(0,-0.52916667)">
      <path
         d="m 86.718165,58.453621 v -1.516239 c 0.281517,0 0.953206,0.03951 1.328561,-0.108656 0.454378,-0.187677 0.6223,-0.607483 0.6223,-1.02235 0,-0.785283 -0.6223,-1.056922 -1.402644,-1.056922 h -1.076678 v 3.704167 z m 0,-3.259667 h 0.479072 c 0.493889,-0.0099 0.938389,0.06421 0.938389,0.676628 0,-0.01976 -0.0049,-0.05433 -0.01976,-0.0889 -0.01976,0.637117 -0.385234,0.706261 -0.968023,0.7112 -0.143228,0 -0.286455,0 -0.429683,0 z"
         style="font-style:normal;font-variant:normal;font-weight:normal;font-stretch:normal;font-size:4.93888903px;font-family:'.Helvetica LT MM';-inkscape-font-specification:'.Helvetica LT MM';letter-spacing:-0.10583333px;stroke-width:0.07000434"
         id="path3847"
         inkscape:connector-curvature="0" />
      <path
         d="m 89.619884,55.752049 h -0.459317 v 2.701572 h 0.48895 V 57.52511 c 0,-0.212372 0.0099,-0.409928 0.03457,-0.592667 0,-0.232128 0.06915,-0.419805 0.187678,-0.548217 0.07408,-0.08396 0.182739,-0.158044 0.321028,-0.197555 v -0.153106 c 0.08396,-0.02469 0.1778,-0.02469 0.291394,0 v -0.123472 c 0,-0.04445 0,-0.09878 0.05927,-0.187678 -0.138289,-0.01482 -0.256822,-0.0049 -0.3556,0.01976 -0.261761,0.05927 -0.434622,0.227189 -0.558095,0.523522 h -0.0099 z"
         style="font-style:normal;font-variant:normal;font-weight:normal;font-stretch:normal;font-size:4.93888903px;font-family:'.Helvetica LT MM';-inkscape-font-specification:'.Helvetica LT MM';letter-spacing:-0.10583333px;stroke-width:0.07000434"
         id="path3849"
         inkscape:connector-curvature="0" />
      <path
         d="m 92.982308,57.001588 c 0,-0.390173 -0.07902,-0.706262 -0.256822,-0.913695 -0.202495,-0.261761 -0.498828,-0.414867 -0.889,-0.414867 -0.434623,0 -0.745773,0.197556 -0.908756,0.538339 -0.162983,0.207434 -0.232128,0.508706 -0.232128,0.889 0.0049,0.543278 0.103717,0.879123 0.286456,1.061861 0.217311,0.2667 0.513644,0.370417 0.854428,0.370417 0.345722,0 0.642055,-0.09878 0.859366,-0.375355 0.182739,-0.207434 0.286456,-0.572912 0.286456,-1.1557 z m -0.503767,0.162983 c 0,0.301272 -0.03951,0.528461 -0.138289,0.671689 -0.103716,0.187678 -0.261761,0.306211 -0.503766,0.306211 -0.237067,0 -0.390173,-0.118533 -0.493889,-0.306211 -0.103717,-0.167922 -0.143228,-0.419806 -0.143228,-0.745772 0,-0.370417 0.04939,-0.617362 0.158044,-0.750712 0.103717,-0.182738 0.261761,-0.271638 0.484011,-0.271638 0.207434,-0.0049 0.370417,0.08396 0.479073,0.261761 0.108655,0.158044 0.158044,0.429683 0.158044,0.834672 z"
         style="font-style:normal;font-variant:normal;font-weight:normal;font-stretch:normal;font-size:4.93888903px;font-family:'.Helvetica LT MM';-inkscape-font-specification:'.Helvetica LT MM';letter-spacing:-0.10583333px;stroke-width:0.07000434"
         id="path3851"
         inkscape:connector-curvature="0" />
      <path
         d="m 94.097924,54.956887 h -0.484012 v 0.795162 h -0.424744 v 0.370416 h 0.419806 v 1.402645 c 0,0.148166 0.0049,0.296333 0.0049,0.439561 0.0049,0.469194 0.187678,0.48895 0.464256,0.48895 0.162983,0.0049 0.335844,0.0049 0.528461,0 v -0.40005 c -0.09384,0 -0.187678,0 -0.281517,0 -0.261761,0 -0.22225,-0.128411 -0.22225,-0.232128 v -1.698978 h 0.513645 v -0.370416 h -0.518583 z"
         style="font-style:normal;font-variant:normal;font-weight:normal;font-stretch:normal;font-size:4.93888903px;font-family:'.Helvetica LT MM';-inkscape-font-specification:'.Helvetica LT MM';letter-spacing:-0.10583333px;stroke-width:0.07000434"
         id="path3853"
         inkscape:connector-curvature="0" />
      <path
         d="m 97.207925,57.001588 c 0,-0.390173 -0.07902,-0.706262 -0.256823,-0.913695 -0.202494,-0.261761 -0.498827,-0.414867 -0.889,-0.414867 -0.434622,0 -0.745772,0.197556 -0.908755,0.538339 -0.162983,0.207434 -0.232128,0.508706 -0.232128,0.889 0.0049,0.543278 0.103717,0.879123 0.286456,1.061861 0.217311,0.2667 0.513644,0.370417 0.854427,0.370417 0.345723,0 0.642056,-0.09878 0.859367,-0.375355 0.182739,-0.207434 0.286456,-0.572912 0.286456,-1.1557 z m -0.503767,0.162983 c 0,0.301272 -0.03951,0.528461 -0.138289,0.671689 -0.103717,0.187678 -0.261761,0.306211 -0.503767,0.306211 -0.237066,0 -0.390172,-0.118533 -0.493888,-0.306211 -0.103717,-0.167922 -0.143228,-0.419806 -0.143228,-0.745772 0,-0.370417 0.04939,-0.617362 0.158044,-0.750712 0.103717,-0.182738 0.261761,-0.271638 0.484011,-0.271638 0.207434,-0.0049 0.370417,0.08396 0.479073,0.261761 0.108655,0.158044 0.158044,0.429683 0.158044,0.834672 z"
         style="font-style:normal;font-variant:normal;font-weight:normal;font-stretch:normal;font-size:4.93888903px;font-family:'.Helvetica LT MM';-inkscape-font-specification:'.Helvetica LT MM';letter-spacing:-0.10583333px;stroke-width:0.07000434"
         id="path3855"
         inkscape:connector-curvature="0" />
      <path
         d="m 98.32354,54.956887 h -0.484011 v 0.795162 h -0.424745 v 0.370416 h 0.419806 v 1.402645 c 0,0.148166 0.0049,0.296333 0.0049,0.439561 0.0049,0.469194 0.187678,0.48895 0.464255,0.48895 0.162984,0.0049 0.335845,0.0049 0.528462,0 v -0.40005 c -0.09384,0 -0.187678,0 -0.281517,0 -0.261761,0 -0.22225,-0.128411 -0.22225,-0.232128 v -1.698978 h 0.513644 V 55.752049 H 98.32354 Z"
         style="font-style:normal;font-variant:normal;font-weight:normal;font-stretch:normal;font-size:4.93888903px;font-family:'.Helvetica LT MM';-inkscape-font-specification:'.Helvetica LT MM';letter-spacing:-0.10583333px;stroke-width:0.07000434"
         id="path3857"
         inkscape:connector-curvature="0" />
      <path
         d="m 99.80779,58.562276 c -0.03951,0.05433 -0.07902,0.09878 -0.108655,0.148167 -0.04445,0.202495 -0.13335,0.325967 -0.414867,0.325967 -0.09384,0 -0.207433,-0.01976 -0.301272,-0.05927 v 0.404989 c 0.0889,0.02963 0.187678,0.04445 0.291394,0.04939 0.09878,0 0.192617,-0.0099 0.276578,-0.03457 0.414867,-0.113595 0.572912,-0.558095 0.745772,-1.002595 0.30621,-0.884061 0.60748,-1.763183 0.90876,-2.642305 h -0.49883 c -0.21731,0.735894 -0.45438,1.501422 -0.68651,2.271889 h -0.005 c -0.123468,-0.409928 -0.242002,-0.8001 -0.355596,-1.20015 -0.103717,-0.3556 -0.212372,-0.7112 -0.316089,-1.071739 h -0.508706 c 0.325967,0.938389 0.651934,1.871839 0.972961,2.810227 z"
         style="font-style:normal;font-variant:normal;font-weight:normal;font-stretch:normal;font-size:4.93888903px;font-family:'.Helvetica LT MM';-inkscape-font-specification:'.Helvetica LT MM';letter-spacing:-0.10583333px;stroke-width:0.07000434"
         id="path3859"
         inkscape:connector-curvature="0" />
      <path
         d="m 102.07193,58.152349 h 0.005 c 0.14817,0.232127 0.31609,0.375355 0.60748,0.380294 0.12841,0 0.24201,-0.01976 0.34572,-0.06421 0.22225,-0.08396 0.43463,-0.261762 0.54822,-0.553156 0.0494,-0.08396 0.079,-0.182739 0.10372,-0.291394 0.0494,-0.217312 0.0642,-0.454378 0.0642,-0.691445 0,-0.192617 -0.0296,-0.40005 -0.11853,-0.582789 -0.10372,-0.2667 -0.29139,-0.498828 -0.57785,-0.597605 -0.10866,-0.04939 -0.23707,-0.07902 -0.38523,-0.07408 -0.24201,0.01976 -0.48895,0.138289 -0.61736,0.419806 h -0.01 v -0.345722 h -0.45932 v 3.669594 h 0.49389 z m 1.17052,-1.047045 c 0,0.321028 -0.0346,0.553156 -0.11854,0.696384 -0.0988,0.212372 -0.25188,0.330905 -0.47907,0.330905 -0.29633,0 -0.43956,-0.202494 -0.51364,-0.4445 -0.0642,-0.197555 -0.0642,-0.4445 -0.0642,-0.607483 0,-0.153106 0.005,-0.395111 0.0741,-0.57785 0.0741,-0.237067 0.22225,-0.434622 0.49883,-0.434622 0.27164,0 0.42475,0.187677 0.51365,0.424744 0.0741,0.202494 0.0889,0.449439 0.0889,0.612422 z"
         style="font-style:normal;font-variant:normal;font-weight:normal;font-stretch:normal;font-size:4.93888903px;font-family:'.Helvetica LT MM';-inkscape-font-specification:'.Helvetica LT MM';letter-spacing:-0.10583333px;stroke-width:0.07000434"
         id="path3861"
         inkscape:connector-curvature="0" />
      <path
         d="m 105.71132,57.599193 c 0.01,0.296333 -0.12347,0.612422 -0.52352,0.57785 0,-0.01975 0.01,-0.02469 0.0198,-0.02469 -0.40005,0 -0.5334,-0.350661 -0.55809,-0.706261 0.0247,-0.09878 0.0593,-0.207434 0.0889,-0.276578 h 1.46685 c -0.01,-0.261761 -0.0247,-0.543278 -0.10372,-0.780345 -0.11853,-0.40005 -0.3556,-0.716139 -0.92851,-0.716139 -0.45932,0 -0.72602,0.316089 -0.889,0.696384 -0.10866,0.246944 -0.15311,0.5334 -0.15311,0.775405 0,0.434623 0.084,0.726017 0.21732,0.918634 0.20743,0.345722 0.49882,0.469194 0.83467,0.469194 0.44944,0 0.75565,-0.237067 0.90381,-0.597605 0.0494,-0.09878 0.079,-0.212373 0.084,-0.335845 z m -1.02729,-0.785283 c -0.01,-0.05433 -0.0247,-0.128411 -0.0296,-0.197556 0.01,-0.09384 0.0346,-0.182739 0.0691,-0.256822 0.0741,-0.167922 0.21237,-0.306211 0.46426,-0.306211 0.23706,0 0.36547,0.143228 0.43956,0.31115 0.0593,0.138289 0.0593,0.321028 0.0691,0.449439 z"
         style="font-style:normal;font-variant:normal;font-weight:normal;font-stretch:normal;font-size:4.93888903px;font-family:'.Helvetica LT MM';-inkscape-font-specification:'.Helvetica LT MM';letter-spacing:-0.10583333px;stroke-width:0.07000434"
         id="path3863"
         inkscape:connector-curvature="0" />
      <path
         d="m 108.91675,58.453621 h 0.50376 v -3.704167 h -0.39017 c -0.079,0.632178 -0.40005,0.750711 -0.9779,0.750711 v 0.385234 h 0.86431 z"
         style="font-style:normal;font-variant:normal;font-weight:normal;font-stretch:normal;font-size:4.93888903px;font-family:'.Helvetica LT MM';-inkscape-font-specification:'.Helvetica LT MM';letter-spacing:-0.10583333px;stroke-width:0.07000434"
         id="path3865"
         inkscape:connector-curvature="0" />
    </g>
  </g>
</svg>
